<svg id="Layer_1" data-name="Layer 1" xmlns="http://www.w3.org/2000/svg" viewBox="0 0 1316.03 447.64"><defs><style>.cls-1{fill:#fff;}.cls-2{fill:#8bc34a;}</style></defs><path class="cls-1" d="M512.19,298.08q-14.54,0-23.29-8t-8.76-24.22l.19-79.93,22.17-2.8v27.21h30.18l-1.12,19H502.5v32.79q0,8.94,4.38,12.58a16.21,16.21,0,0,0,10.71,3.63,28.51,28.51,0,0,0,10.06-1.49,21.6,21.6,0,0,0,6.15-3.35l-1.49,20.12a32.57,32.57,0,0,1-8.11,3.17A48.08,48.08,0,0,1,512.19,298.08Z"/><path class="cls-1" d="M640.93,280.19a10.71,10.71,0,0,0,2.61-.28,15.43,15.43,0,0,0,2.05-.65l-1.49,17c-1.37.37-3,.71-4.85,1a44.28,44.28,0,0,1-7.08.47q-9.31,0-14.25-4.75T613,279.26V248.89c0-6.45-1.65-11.46-4.94-15s-7.73-5.32-13.32-5.32a21.52,21.52,0,0,0-8.57,1.68,19.09,19.09,0,0,0-6.52,4.47,21,21,0,0,0-4.1,6.52,20.49,20.49,0,0,0-1.49,7.64V296H551.68V175.3L574,174V218.9a29.72,29.72,0,0,1,10.9-7.64,39.11,39.11,0,0,1,15.37-2.8q16.22,0,25.62,10t9.41,27.67v27.76c0,2.23.53,3.85,1.58,4.84A5.59,5.59,0,0,0,640.93,280.19Z"/><path class="cls-1" d="M679.68,257.65A22.4,22.4,0,0,0,688.06,273q7.28,5.87,20.13,5.87a59.09,59.09,0,0,0,9.13-.65,48.24,48.24,0,0,0,7.45-1.77,36.75,36.75,0,0,0,6.33-2.8,53.83,53.83,0,0,0,6-3.91l-2,20.68a46.19,46.19,0,0,1-12.3,5.31,67.43,67.43,0,0,1-19,2.33,57.08,57.08,0,0,1-18.81-3,42.27,42.27,0,0,1-14.72-8.57,39,39,0,0,1-9.6-13.6A44.77,44.77,0,0,1,657.14,255a47.66,47.66,0,0,1,3.54-18.54,43.82,43.82,0,0,1,10-14.72A46.68,46.68,0,0,1,685.83,212a50.42,50.42,0,0,1,19-3.54q16.77,0,25.43,7.83A25.45,25.45,0,0,1,738.93,236q0,13.61-9.6,21t-27.11,7.64a46.32,46.32,0,0,1-13.78-1.86Q682.47,261,679.68,257.65Zm25.15-30.56a24.71,24.71,0,0,0-16.58,6.06q-7.08,6.06-8.57,16.67a129.12,129.12,0,0,0,17.61-.37A46.16,46.16,0,0,0,708.84,247a13.77,13.77,0,0,0,6.33-4.29,9.61,9.61,0,0,0,2-6,8.45,8.45,0,0,0-3.35-7.17Q710.42,227.09,704.83,227.09Z"/><path class="cls-1" d="M809.35,208.46A42.42,42.42,0,0,1,840,221.13a43.55,43.55,0,0,1,9.23,14.16,49.42,49.42,0,0,1,0,35.77,42.9,42.9,0,0,1-23,23.57,41.8,41.8,0,0,1-16.87,3.45q-16.58,0-27.76-10.25v40.81H759.42V235.11l-1.68-23.85,20.87-2,.75,11.74a38.49,38.49,0,0,1,13.32-9.23A42.5,42.5,0,0,1,809.35,208.46Zm-3.72,69.31a24.3,24.3,0,0,0,9.59-1.86,22.12,22.12,0,0,0,7.55-5.22,24.42,24.42,0,0,0,4.94-7.82,27.41,27.41,0,0,0,0-19.38,24.58,24.58,0,0,0-4.94-7.83,22.24,22.24,0,0,0-7.55-5.21,24.3,24.3,0,0,0-9.59-1.87,25,25,0,0,0-9.69,1.87,22,22,0,0,0-7.64,5.21,24.4,24.4,0,0,0-4.94,7.83,27.41,27.41,0,0,0,0,19.38,24.25,24.25,0,0,0,4.94,7.82,21.92,21.92,0,0,0,7.64,5.22A25,25,0,0,0,805.63,277.77Z"/><path class="cls-1" d="M888.91,257.65A22.36,22.36,0,0,0,897.29,273q7.28,5.87,20.12,5.87a58.91,58.91,0,0,0,9.13-.65,48,48,0,0,0,7.45-1.77,36.52,36.52,0,0,0,6.34-2.8,54.78,54.78,0,0,0,6-3.91l-2,20.68A46.11,46.11,0,0,1,932,295.75a67.43,67.43,0,0,1-19,2.33,57.18,57.18,0,0,1-18.82-3,42.23,42.23,0,0,1-14.71-8.57,39,39,0,0,1-9.6-13.6A44.77,44.77,0,0,1,866.36,255a47.66,47.66,0,0,1,3.54-18.54,44,44,0,0,1,10-14.72A46.68,46.68,0,0,1,895.06,212a50.38,50.38,0,0,1,19-3.54q16.77,0,25.43,7.83A25.45,25.45,0,0,1,948.16,236q0,13.61-9.6,21t-27.11,7.64a46.39,46.39,0,0,1-13.79-1.86Q891.71,261,888.91,257.65Zm25.15-30.56a24.71,24.71,0,0,0-16.58,6.06q-7.08,6.06-8.57,16.67a128.92,128.92,0,0,0,17.6-.37A46.26,46.26,0,0,0,918.07,247a13.83,13.83,0,0,0,6.33-4.29,9.67,9.67,0,0,0,2-6,8.43,8.43,0,0,0-3.36-7.17Q919.66,227.09,914.06,227.09Z"/><path class="cls-1" d="M1009.27,298.08A51,51,0,0,1,991,294.82a45.6,45.6,0,0,1-15-9.22A42.67,42.67,0,0,1,966,271.44a44.63,44.63,0,0,1-3.64-18.26,42.18,42.18,0,0,1,3.73-17.7,45.46,45.46,0,0,1,10.06-14.25A44.88,44.88,0,0,1,991,211.82a49.56,49.56,0,0,1,18.26-3.36,50.8,50.8,0,0,1,18.35,3.26,45.9,45.9,0,0,1,14.9,9.23,42.47,42.47,0,0,1,10.06,14.16,44.13,44.13,0,0,1,3.64,18.07,43.58,43.58,0,0,1-13.88,32.23,47.33,47.33,0,0,1-14.91,9.32A49,49,0,0,1,1009.27,298.08Zm0-20.31a24.3,24.3,0,0,0,9.59-1.86,23.19,23.19,0,0,0,7.64-5.22,23.5,23.5,0,0,0,5-7.82,27.41,27.41,0,0,0,0-19.38,23.65,23.65,0,0,0-5-7.83,23.31,23.31,0,0,0-7.64-5.21,25.55,25.55,0,0,0-19.19,0,23.21,23.21,0,0,0-7.64,5.21,23.65,23.65,0,0,0-5,7.83,27.41,27.41,0,0,0,0,19.38,23.5,23.5,0,0,0,5,7.82,23.09,23.09,0,0,0,7.64,5.22A24.31,24.31,0,0,0,1009.27,277.77Z"/><path class="cls-1" d="M1126.27,208.46a42.46,42.46,0,0,1,30.65,12.67,43.53,43.53,0,0,1,9.22,14.16,49.42,49.42,0,0,1,0,35.77,42.82,42.82,0,0,1-23,23.57,41.76,41.76,0,0,1-16.86,3.45q-16.59,0-27.76-10.25v40.81h-22.17V235.11l-1.68-23.85,20.87-2,.74,11.74a38.68,38.68,0,0,1,13.32-9.23A42.59,42.59,0,0,1,1126.27,208.46Zm-3.73,69.31a24.31,24.31,0,0,0,9.6-1.86,22.18,22.18,0,0,0,7.54-5.22,24.25,24.25,0,0,0,4.94-7.82,27.41,27.41,0,0,0,0-19.38,24.4,24.4,0,0,0-4.94-7.83,22.3,22.3,0,0,0-7.54-5.21,24.31,24.31,0,0,0-9.6-1.87,25,25,0,0,0-9.69,1.87,22.13,22.13,0,0,0-7.64,5.21,24.38,24.38,0,0,0-4.93,7.83,27.41,27.41,0,0,0,0,19.38,24.22,24.22,0,0,0,4.93,7.82,22,22,0,0,0,7.64,5.22A25,25,0,0,0,1122.54,277.77Z"/><path class="cls-1" d="M1217.19,280.19a11.39,11.39,0,0,0,2.42-.28,13.07,13.07,0,0,0,2.23-.65l-1.49,17a25.92,25.92,0,0,1-5.68,1.21c-1.93.18-3.88.28-5.87.28q-19.93,0-19.93-21.8V175.11l22.35-.93V273.3q0,3.74,1.68,5.31A6,6,0,0,0,1217.19,280.19Z"/><path class="cls-1" d="M1256.31,257.65A22.37,22.37,0,0,0,1264.7,273q7.26,5.87,20.12,5.87a59.09,59.09,0,0,0,9.13-.65,48.24,48.24,0,0,0,7.45-1.77,36.42,36.42,0,0,0,6.33-2.8,54.88,54.88,0,0,0,6-3.91l-2,20.68a46.19,46.19,0,0,1-12.3,5.31,67.4,67.4,0,0,1-19,2.33,57.1,57.1,0,0,1-18.82-3,42.27,42.27,0,0,1-14.72-8.57,39,39,0,0,1-9.6-13.6,44.77,44.77,0,0,1-3.44-17.89,47.66,47.66,0,0,1,3.54-18.54,43.85,43.85,0,0,1,10-14.72,46.53,46.53,0,0,1,15.18-9.78,50.42,50.42,0,0,1,19-3.54q16.77,0,25.44,7.83a25.48,25.48,0,0,1,8.66,19.75q0,13.61-9.6,21t-27.1,7.64a46.34,46.34,0,0,1-13.79-1.86Q1259.1,261,1256.31,257.65Zm25.15-30.56a24.71,24.71,0,0,0-16.58,6.06q-7.08,6.06-8.57,16.67a129.07,129.07,0,0,0,17.61-.37,46.16,46.16,0,0,0,11.55-2.42,13.77,13.77,0,0,0,6.33-4.29,9.61,9.61,0,0,0,2-6,8.45,8.45,0,0,0-3.35-7.17Q1287.05,227.09,1281.46,227.09Z"/><path class="cls-1" d="M273.74,123.94l-1.28,16.94H260.63v24.3h-19v-24.3H190.77L188.86,126l22.38-63.78,19.18-2.55L209,123.94h32.61v-39l19-1.28v40.29Z"/><path class="cls-1" d="M40.9,329.84C3.05,264.21.83,153.93,77,75.43,156.65-6.64,283.19-12.77,369.46,55.1c93.07,73.21,101.75,191.66,62.22,268.51-.47-3-.89-5.31-1.18-7.66a54.39,54.39,0,0,0-8.69-23.19,9.17,9.17,0,0,1-1.15-8.41c11.69-39.3,11.74-78.64-1.69-117.41-21.54-62.2-63.62-105.21-126.62-124-79.68-23.78-148.79-3-204.82,58.24-25.81,28.19-40.25,62.42-45.59,100.39a199,199,0,0,0,2.4,67.54c.26,1.29.88,2.56.34,3.9-5.18,13-3.57,26.59-3.76,40C40.84,318.26,40.9,323.51,40.9,329.84Z"/><path class="cls-2" d="M177.67,439.78c-13.65-2.71-26.37-8-38.76-14.12a219.86,219.86,0,0,1-79.16-64.85A12.48,12.48,0,0,1,57,352.6c.13-13,.33-26,0-38.93A60.75,60.75,0,0,1,98.29,254.5c26.59-8.69,53.15.35,70,23.6a16.65,16.65,0,0,0,1.33,1.47A23.55,23.55,0,0,0,171,283.8c5.36,9.73,7.13,20.15,7,31.19-.22,31.78-.06,63.57-.1,95.35C177.9,420.15,177.75,430,177.67,439.78Z"/><path class="cls-1" d="M327.77,279.69c.15-.38.29-.76.43-1.15,19.69-8.46,39.21-8.66,57.87,2.47,18.39,11,28.53,27.43,29.78,49,.36,6.3.08,12.64.17,19a8.21,8.21,0,0,1-1.73,5.05,215.24,215.24,0,0,1-61.9,59.22c-4.61,2.91-9,6.36-14.32,8-.14-2.48-.39-5-.39-7.44,0-33.92.09-67.83-.09-101.75C337.53,300.36,334.85,289.31,327.77,279.69Z"/><path class="cls-1" d="M258.12,446a154.87,154.87,0,0,1-42,.38,151.89,151.89,0,0,1-38.42-6.6c.08-9.81.23-19.63.24-29.44,0-31.79-.12-63.57.1-95.35.08-11-1.69-21.46-7-31.19a23.55,23.55,0,0,1-1.39-4.23c18.5-9.19,37-9.88,55.44.13l1-.18c15.55,9.24,26.24,22.17,30.5,40a65,65,0,0,1,1.57,15.3Q258.05,390.43,258.12,446Z"/><path class="cls-2" d="M338.07,421.19a170.1,170.1,0,0,1-42.86,17.52h0A146.57,146.57,0,0,1,258.12,446q0-55.58,0-111.16a65,65,0,0,0-1.57-15.3c-4.26-17.85-14.95-30.78-30.5-40,10.75-17.14,26.42-26.43,46.41-27.93,23.62-1.77,41.89,8.22,55.76,27-.14.38-.28.77-.43,1.15,7.08,9.62,9.76,20.67,9.82,32.31.18,33.91.06,67.83.09,101.74C337.68,416.22,337.93,418.71,338.07,421.19Z"/><path class="cls-1" d="M328.09,223.66c0-16,12.15-27.47,29.11-27.34,13.21.11,25.09,12.91,25.28,27.25.2,14.75-11.93,26.87-26.94,26.94C340,250.58,328.12,239,328.09,223.66Z"/><path class="cls-2" d="M250,202.08a27.21,27.21,0,1,1,54.41.53c-.17,14.59-12.72,26.92-27.31,26.82A27.06,27.06,0,0,1,250,202.08Z"/><path class="cls-2" d="M144.91,202.45a27.21,27.21,0,0,1-54.42-.19c0-14.95,12.6-27.52,27.34-27.32A27.37,27.37,0,0,1,144.91,202.45Z"/><path class="cls-1" d="M197.72,196.52a27,27,0,0,1,26.95,27c.08,14.68-12.24,27-27,27a27.07,27.07,0,0,1-27.41-27.11C170.31,208.25,182.33,196.49,197.72,196.52Z"/></svg>